# xmcd
#
# Track frame offsets:
#	150
#	14184
#	29375
#	42520
#	58697
#	77057
#	90006
#	105881
#	118345
#	136571
#
# Disc length: 2001 seconds
#
# Revision: 2
# Processed by: cddbd v1.5.1PL2 Copyright (c) Steve Scherf et al.
# Submitted via: audiograbber 1.83.01
#
DISCID=7607cf0a
DTITLE=Blues Brothers - Gimme Some Lovin' and Other Hits
DYEAR=2005
DGENRE=Blues
TTITLE0=Gimme Some Lovin'
TTITLE1=Everybody Needs Somebody To Love
TTITLE2=Messin' With The Kid
TTITLE3=Groove Me
TTITLE4="B" Movie Box Car Blues
TTITLE5=Guilty
TTITLE6=Riot In Cell Block Number Nine
TTITLE7=I Ain't Got You
TTITLE8=Going Back To Miami
TTITLE9=Soul Man
EXTD=
EXTT0=
EXTT1=
EXTT2=
EXTT3=
EXTT4=
EXTT5=
EXTT6=
EXTT7=
EXTT8=
EXTT9=
PLAYORDER=
